<svg width="1149" height="629" viewBox="0 0 1149 629" fill="none" xmlns="http://www.w3.org/2000/svg">
<g clip-path="url(#clip0_15044_8996)">
<path d="M225.762 302.203C227.256 290.8 227.156 287.008 232.923 276.659C238.106 267.356 259.953 249.695 262.788 241.986C260.116 232.942 207.87 224.726 212.688 205.382L213.594 204.883C216.087 206.039 218.371 210.756 220.637 212.352C224.265 214.909 246.581 221.143 248.96 217.847C247.636 211.633 224.853 196.158 222.461 188.478C224.518 181.205 266.542 188.407 270.946 193.294C274.532 197.275 272.641 218.175 281.633 220.432C284.153 219.929 284.723 219.545 286.192 217.026C290.209 210.252 292.799 204.109 296.819 197.16C312.253 170.477 329.555 138.594 357.525 123.504C362.493 120.825 377.979 118.224 383.773 117.087C428.794 108.651 474.467 104.18 520.27 103.724C573.064 102.515 625.852 106.33 677.921 115.114C687.313 116.636 707.869 119.927 715.954 123.948C728.078 129.979 742.547 145.597 750.317 156.685C759.737 170.134 768.506 183.974 776.372 198.483C780.265 205.372 782.796 213.515 787.951 219.573C789.881 221.843 792.294 218.622 793.556 217.75C801.388 212.323 796.277 200.281 800.171 194.758C803.554 189.952 819.599 186.995 825.271 186.368C831.089 185.984 845.43 183.869 849.991 187.438C851.612 193.538 821.378 213.308 824.009 218.137C829.502 220.59 846.423 214.917 851.175 210.922C853.559 208.912 855.579 205.488 857.677 204.202L858.266 204.951C859.169 228.585 811.077 230.918 809.276 241.448C810.382 245.332 815.818 250.107 818.556 253.118C839.039 275.651 846.866 278.995 846.164 310.356C843.292 304.186 842.473 297.35 839.814 290.985C832.43 273.314 811.01 264.844 796.737 253.408C794.796 251.855 787.71 247.47 785.494 248.943C762.329 264.315 736.965 286.766 711.342 297.792C717.014 289.947 726.765 282.975 734.21 276.542C741.935 269.789 749.521 262.878 756.96 255.813C760.197 252.756 769.056 245.702 768.147 241.407C761.14 235.965 649.05 232.541 631.4 232.145C604.471 233.17 576.295 235.444 549.287 237.116C507.686 239.522 466.1 242.194 424.532 245.13C394.123 247.402 359.513 250.966 329.276 252.236C347.073 269.921 363.411 288.524 384.089 302.656C388.988 306.004 393.694 310.105 399.084 312.794C410.11 318.099 425.001 323.256 435.989 327.907C441.908 330.412 472.953 341.912 476.445 344.544C493.489 346.182 516.015 345.974 533.967 345.686C625.981 344.214 728.773 344.533 812.99 302.959C816.587 301.183 822.696 295.661 825.967 298.552C827.465 302.622 819.734 320.961 817.894 324.922C812.474 336.696 802.134 354.376 788.765 358.386C757.712 367.412 723.578 361.379 691.919 361.794C633.179 362.567 573.299 366.1 514.61 364.982C459.808 363.937 408.462 360.094 353.383 362.999C350.529 364.973 324.081 368.462 318.958 369.259L251.406 379.85C247.094 372.734 241.171 363.11 239.692 355.017C237.588 343.509 224.434 311.979 225.762 302.203Z" fill="#030301"/>
<path d="M476.445 344.544C493.489 346.182 516.015 345.974 533.967 345.686C625.981 344.215 728.773 344.533 812.99 302.959C816.587 301.183 822.696 295.661 825.967 298.552C827.465 302.622 819.734 320.961 817.894 324.922C812.474 336.696 802.134 354.376 788.765 358.386C757.712 367.412 723.578 361.379 691.919 361.795C633.179 362.567 573.299 366.1 514.61 364.982C459.808 363.937 408.462 360.094 353.383 362.999C330.336 361.593 291.548 367.826 273.394 352.586C261.949 342.505 255.076 327.869 249.845 313.831C248.44 310.061 244.729 301.448 247.519 298.263C251.965 298.112 262.338 304.255 266.896 306.55C280.611 313.548 295.029 319.072 309.908 323.032C350.567 333.762 387.952 339.462 429.929 341.924C444.794 342.795 461.643 344.645 476.445 344.544Z" fill="#030301"/>
<path d="M270.483 326.435C275.357 326.055 304.753 338.299 312.843 340.392C319.039 341.994 354.327 350.2 356.768 351.874L356.798 352.849L355.414 354.101C351.508 354.797 340.111 355.896 335.842 355.3C320.768 353.217 304.525 353.363 289.91 349.419C283.199 347.607 270.031 333.56 270.483 326.435Z" fill="#F3E157"/>
<path d="M799.503 325.987L800.833 326.55C803.767 330.968 793.186 342.735 789.977 344.909C774.33 355.497 737.986 356.1 720.431 354.05C718.967 353.788 718.327 353.848 717.356 352.839L717.536 351.861C720.156 349.914 756.012 341.588 763.171 339.322C775.457 335.43 787.2 329.593 799.503 325.987Z" fill="#F3F2F2"/>
<path d="M361.864 298.448C352.409 286.62 307.407 252.393 304.179 243.053C304.988 239.657 308.659 239.73 311.634 239.347C335.53 236.263 359.572 235.078 383.626 233.83C431.259 231.473 478.951 230.501 526.641 230.917C559.726 231.006 598.77 230.202 631.4 232.145C604.471 233.17 576.295 235.444 549.287 237.116C507.686 239.522 466.1 242.194 424.532 245.13C394.123 247.402 359.513 250.966 329.276 252.236C347.073 269.921 363.411 288.524 384.089 302.656C388.988 306.004 393.694 310.105 399.084 312.794C410.11 318.099 425.001 323.256 435.989 327.907C441.908 330.412 472.953 341.912 476.444 344.544C461.643 344.645 444.794 342.795 429.929 341.924C387.952 339.462 350.567 333.762 309.908 323.032C295.029 319.072 280.611 313.548 266.896 306.55C262.338 304.255 251.965 298.112 247.519 298.263C244.729 301.448 248.44 310.061 249.845 313.831C255.076 327.869 261.949 342.505 273.394 352.586C291.548 367.826 330.336 361.593 353.383 362.999C350.529 364.973 324.081 368.462 318.958 369.259L251.406 379.85C247.094 372.734 241.171 363.11 239.692 355.018C237.588 343.509 224.434 311.979 225.762 302.203C225.845 303.774 225.756 304.356 226.512 305.72L227.281 305.495C229.201 302.056 230.355 296.092 231.918 292.009C233.573 287.658 236.037 283.661 239.181 280.228C243.257 275.849 282.095 246.587 285.495 248.563C309.959 262.785 335.553 287.735 361.864 298.448Z" fill="#F3E157"/>
<path d="M439.95 218.788C425.131 219.07 409.692 217.992 394.718 217.746C389.365 217.657 361.553 217.901 359.405 214.539C355.352 208.196 360.139 170.113 356.666 165.622L355.582 165.719C347.691 173.299 343.035 204.605 338.756 215.102C337.648 217.821 324.01 217.228 321.938 215.483C317.247 204.471 346.172 134.859 360.615 132.703C427.696 122.694 497.235 120.816 565.069 121.794C604.476 121.868 643.85 124.195 682.987 128.767C692.957 129.906 710.994 130.213 717.609 136.524C728.751 147.154 756.578 203.075 750.295 215.406C747.613 217.692 732.342 216.983 727.747 217.04C687.638 217.194 647.541 218.14 607.472 219.877C591.09 220.621 574.708 222.079 558.316 222.893C518.958 224.849 479.371 219.976 439.95 218.788Z" fill="#F3F2F2"/>
<path d="M439.95 218.788C425.131 219.07 409.692 217.992 394.718 217.746C389.365 217.657 361.553 217.901 359.405 214.539C355.352 208.196 360.139 170.113 356.666 165.622L355.582 165.719C347.691 173.299 343.035 204.605 338.756 215.102C337.648 217.821 324.01 217.228 321.938 215.483C317.247 204.471 346.172 134.859 360.615 132.703C427.696 122.694 497.235 120.816 565.069 121.794C559.148 123.58 551.113 124.435 544.853 125.351L513.136 129.889C480.416 134.42 445.308 139.222 412.747 144.395C406.657 164.333 398.532 188.4 393.364 208.252C399.081 209.392 436.577 216.903 439.95 218.788Z" fill="#F3E157"/>
<path d="M173.363 396.325L708.812 396.021L854.799 396.047L896.927 395.978C902.61 395.964 914.583 395.644 919.739 396.327L919.755 493.094L431.264 493.118L173.372 493.106L173.363 396.325Z" fill="#030301"/>
<path d="M173.363 396.325L708.812 396.021L854.799 396.047L896.927 395.978C902.61 395.964 914.583 395.644 919.739 396.327C906.027 397.357 879.484 396.533 865.043 396.532L755.664 396.529L431.269 396.499C431.132 401.685 431.13 408.219 430.531 413.262C430.109 424.988 430.39 437.865 430.367 449.674C430.355 455.963 430.02 467.422 430.476 473.373C431.076 479.435 431.24 486.949 431.264 493.118L173.372 493.106L173.363 396.325Z" fill="#F3F2F2"/>
<path d="M173.363 396.325L708.812 396.021L854.799 396.047L896.927 395.978C902.61 395.964 914.583 395.644 919.739 396.327C906.027 397.357 879.484 396.533 865.043 396.532L755.664 396.529L431.269 396.499C431.132 401.685 431.13 408.219 430.531 413.262C429.452 409.086 429.015 407.281 428.624 402.97L180.13 402.968L180.121 486.456L428.772 486.485C429.076 481.351 429.101 478.34 430.476 473.373C431.076 479.435 431.24 486.949 431.264 493.118L173.372 493.106L173.363 396.325Z" fill="#A2A1A1"/>
<path d="M261.221 411.18C266.092 411.031 271.417 411.104 276.327 411.07L299.043 475.352L284.556 475.364C283.226 471.623 282.449 466.235 280.123 463.141C279.57 462.405 278.435 462.586 277.292 462.516L256.56 462.477L252.284 475.357L238.297 475.333L261.221 411.18Z" fill="#030301"/>
<path d="M268.385 426.788C270.088 428.467 275.86 448.264 276.88 451.576L269.016 451.592L260.267 451.551C262.867 443.262 265.574 435.008 268.385 426.788Z" fill="#F3F2F2"/>
<path d="M380.452 411.108L395.63 411.124C402.825 432.425 410.783 454.077 418.315 475.306L403.743 475.349C402.774 471.87 401.466 466.264 399.512 463.239C398.991 462.433 398.002 462.617 396.792 462.515L375.733 462.507C374.699 466.307 372.819 471.481 371.554 475.333L357.493 475.333C365.154 456.547 373.49 430.694 380.452 411.108Z" fill="#030301"/>
<path d="M387.525 426.821C389.578 428.904 394.882 447.763 396.039 451.583L389.078 451.59L379.388 451.531C382.142 443.308 384.854 435.071 387.525 426.821Z" fill="#F3F2F2"/>
<path d="M303.551 411.154C319.366 410.773 336.64 411.125 352.57 411.133C352.634 414.62 352.544 418.284 352.511 421.787L319.038 464.36C329.855 464.7 341.856 464.469 352.763 464.49L352.751 475.314C336.847 475.786 318.748 475.353 302.672 475.344L302.695 464.593C311.887 451.66 325.815 435.348 335.832 422.269L303.527 422.222L303.551 411.154Z" fill="#030301"/>
<path d="M192.697 411.157C207.655 410.878 223.397 411.128 238.416 411.137L238.404 422.194C227.715 422.375 216.646 422.244 205.926 422.259L205.956 437.231L234.305 437.257L234.364 443.975C234.443 445.766 234.461 446.132 234.054 447.869C231.593 448.933 210.305 448.422 205.93 448.387L205.94 475.371L192.615 475.344L192.697 411.157Z" fill="#030301"/>
<path d="M847.225 411.124C857.885 411.062 875.153 410.122 885.325 411.932C900.422 414.617 905.292 436.088 889.751 444.958C903.502 452.246 892.203 464.543 900.927 475.274C895.681 475.348 890.312 475.293 885.055 475.297C883.215 468.645 884.287 460.343 882.447 454.422C880.797 449.125 865.655 450.61 860.678 450.677L860.656 475.341L847.214 475.321L847.225 411.124Z" fill="#F3E157"/>
<path d="M861.397 422.216C869.1 422.129 886.172 419.423 885.493 430.778C885.246 434.891 885.207 435.413 882.312 438.333C876.309 440.263 867.192 439.747 860.678 439.705C860.645 436.588 860.095 423.946 861.397 422.216Z" fill="#030301"/>
<path d="M449.371 411.144C459.918 411.075 477.876 410.107 487.757 412.049C502.405 414.928 507.141 436.153 491.846 444.852C501.678 451.075 499.328 460.609 499.778 471.024L502.817 475.373C497.576 475.454 492.224 475.398 486.974 475.397C481.885 452.358 493.74 450.294 462.71 450.677C462.604 458.874 462.664 467.216 462.644 475.428L449.379 475.408L449.371 411.144Z" fill="#F3E157"/>
<path d="M462.869 422.225C469.537 422.158 479.121 421.116 484.96 424.558C489.96 427.505 487.874 433.937 485.158 437.791C479.798 440.477 468.947 439.756 462.683 439.69C462.645 434.196 462.438 427.613 462.869 422.225Z" fill="#030301"/>
<path d="M572.503 411.126L586.787 411.094C595.146 425.757 603.803 441.552 612.516 455.911L612.46 411.145L625.077 411.149C624.976 432.325 625.481 454.366 624.954 475.449L611.36 475.434L585.233 430.042L585.205 475.448L572.531 475.4L572.503 411.126Z" fill="#F3E157"/>
<path d="M800.491 411.107L815.818 411.115C817.518 417.086 821.221 426.596 823.431 432.842L838.456 475.325L823.768 475.329C822.489 471.608 821.782 466.623 819.622 463.347C818.937 462.315 817.832 462.574 816.446 462.513L795.957 462.484L791.772 475.349L777.651 475.331C784.697 454.195 792.967 432.174 800.491 411.107Z" fill="#F3E157"/>
<path d="M807.711 426.887C809.4 428.757 814.915 447.72 816.099 451.577L808.541 451.616L799.486 451.583C802.106 445.08 805.405 433.873 807.711 426.887Z" fill="#030301"/>
<path d="M513.34 411.135L560.683 411.145L560.64 422.608L526.735 422.593L526.723 436.25C537.1 436.202 547.476 436.219 557.852 436.302L557.774 447.227L527.487 447.215C526.115 448.69 526.682 461.371 526.701 464.259L562.354 464.345L562.32 475.443L513.34 475.408V411.135Z" fill="#F3E157"/>
<path d="M738.3 409.731C757.033 408.583 767.143 413.606 772.125 432.459C767.524 432.617 762.812 432.525 758.2 432.488C755.238 424.948 751.389 419.772 741.902 420.975C728.532 423.404 727.595 439.747 728.818 450.289C730.558 465.275 747.136 472.291 756.231 458.588L757.93 453.455L771.67 453.497C770.7 457.451 769.695 460.173 767.889 463.844C761.033 477.758 741.234 480.794 728.515 473.449C712.419 464.155 710.63 437.162 719.662 422.284C724.072 415.019 730.249 411.552 738.3 409.731Z" fill="#F3E157"/>
<path d="M631.765 411.17C648.927 410.841 667.048 411.134 684.283 411.13L684.255 422.226H665.068L665.023 455.338L665.012 475.45L651.457 475.401L651.463 422.27L631.759 422.158L631.765 411.17Z" fill="#F3E157"/>
<path d="M477.242 515.216C482.69 515.291 486.943 517.596 488.607 523.007C489.673 526.489 489.272 530.255 487.497 533.435C485.519 536.963 483.356 537.801 479.678 538.798C464.152 538.57 462.746 518.581 477.242 515.216Z" fill="#030301"/>
<path d="M475.976 519.714C486.02 519.452 487.154 528.848 480.647 534.421C475.429 534.415 471.734 532.846 471.875 526.311C471.938 523.411 473.667 521.423 475.976 519.714Z" fill="#F3F2F2"/>
<path d="M645.045 515.212C650.386 515.3 654.65 517.764 656.226 523.041C657.247 526.503 656.843 530.23 655.098 533.391C653.051 537.065 650.93 537.783 647.115 538.85C632.124 538.569 629.902 518.617 645.045 515.212Z" fill="#030301"/>
<path d="M643.35 519.716C644.231 519.68 645.112 519.675 645.993 519.7C647.895 519.77 649.101 520.396 650.402 521.87C651.755 523.378 652.428 525.376 652.259 527.395C652.001 530.587 650.733 532.277 648.444 534.286C637.936 534.656 636.87 525.482 643.35 519.716Z" fill="#F3F2F2"/>
<path d="M738.103 515.222C743.832 515.281 748.129 517.753 749.706 523.479C750.643 526.881 750.183 530.515 748.427 533.575C746.469 536.933 744.438 537.742 740.897 538.739C735.074 538.949 730.501 536.697 728.824 530.781C727.808 527.258 728.274 523.471 730.126 520.304C732.145 516.903 734.49 516.114 738.103 515.222Z" fill="#030301"/>
<path d="M736.858 519.721C737.711 519.685 738.569 519.678 739.427 519.699C746.799 519.942 747.299 529.277 741.767 534.336C736.746 534.247 732.976 533.478 732.807 526.724C732.734 523.73 734.569 521.56 736.858 519.721Z" fill="#F3F2F2"/>
<path d="M870.278 515.917C875.153 515.806 880.315 515.283 884.786 517.605C891.967 521.333 889.908 530.144 886.234 535.794C881.897 539.198 875.815 538.232 870.182 538.134C870.11 530.728 870.143 523.322 870.278 515.917Z" fill="#030301"/>
<path d="M874.603 519.933C884.337 519.684 886.823 523.432 883.086 532.505C872.14 539.413 874.497 526.647 874.603 519.933Z" fill="#F3F2F2"/>
<path d="M614.339 515.932C621.666 515.793 639.569 514.918 629.016 527.692C630.974 530.232 632.803 534.304 631.344 537.462C629.582 538.498 629.919 538.158 627.54 538.002L626.817 536.89C626.828 528.931 625.24 529.601 618.188 529.725C618.238 530.939 618.278 532.154 618.306 533.369C618.356 535.567 618.558 536.554 617.122 538.055C615.147 538.063 614.867 538.412 613.526 537.398C613.139 534.29 612.628 517.346 614.339 515.932Z" fill="#030301"/>
<path d="M618.193 519.93C620.589 519.9 624.297 519.471 626.149 520.675C627.49 522.691 627.091 522.239 627.271 524.908C625.06 525.457 621.116 526.146 619.125 524.939C617.722 522.911 618.21 522.893 618.193 519.93Z" fill="#F3F2F2"/>
<path d="M359.796 515.925C365.358 515.823 385.201 514.323 374.532 527.707C374.047 528.316 380.22 535.9 375.893 538.325C374.235 538.316 374.017 538.31 372.586 537.489L372.277 535.805C372.134 533.568 372.34 532.098 370.759 530.384C368.94 529.33 365.761 529.686 363.527 529.736C363.539 532.004 363.812 536.448 362.827 538.108C360.484 538.305 361.15 538.588 359.779 537.495C358.387 534.569 357.73 517.513 359.796 515.925Z" fill="#030301"/>
<path d="M363.514 519.95C365.912 519.909 369.608 519.46 371.471 520.641C372.857 522.693 372.442 522.196 372.614 524.962C370.124 525.353 366.489 526.232 364.415 524.919C363.08 522.914 363.543 522.811 363.514 519.95Z" fill="#F3F2F2"/>
<path d="M493.465 515.933C497.691 515.841 505.639 515.192 509.092 517.7C510.246 518.538 510.977 519.837 511.095 521.259C511.34 524.317 509.916 525.542 508.2 527.384C508.203 528.279 514.103 536.576 508.703 538.586C507.296 538.233 507.2 538.238 506.039 537.408C505.72 529.093 504.804 529.611 497.197 529.721C497.182 532.926 498.41 536.051 495.677 538C493.705 538.099 493.919 538.422 492.704 537.513C492.301 534.424 491.853 517.642 493.465 515.933Z" fill="#030301"/>
<path d="M497.191 519.964C499.607 519.908 503.21 519.433 505.075 520.593C506.559 522.71 506.115 522.231 506.343 525.128C503.803 525.363 499.932 526.159 497.959 524.868C496.76 522.928 497.194 522.641 497.191 519.964Z" fill="#F3F2F2"/>
<path d="M448.105 515.937C452.41 515.815 459.138 515.23 462.378 518.139C468.166 523.337 463.748 530.222 456.814 530.579C449.963 530.464 452.654 532.208 451.051 537.591C449.457 538.512 450.136 538.267 447.906 538.108C446.772 535.583 446.247 517.403 448.105 515.937Z" fill="#030301"/>
<path d="M451.725 519.966C452.073 519.952 452.421 519.94 452.769 519.929C455.001 519.862 457.312 519.596 458.964 521.152C459.967 522.91 459.637 524.037 459.405 526.021C457.513 526.322 453.995 526.861 452.455 525.731C451.3 524.203 451.661 521.957 451.725 519.966Z" fill="#F3F2F2"/>
<path d="M593.07 515.924C597.098 515.836 603.741 515.299 606.911 517.719C613.526 522.772 609.262 529.832 602.109 530.592C600.078 530.611 599.309 530.662 597.295 531.003C596.089 533.189 597.8 535.229 596.638 537.805L595.017 538.31C592.986 537.865 593.407 538.28 592.358 536.972C592.352 533.624 591.842 517.795 593.07 515.924Z" fill="#030301"/>
<path d="M596.964 519.933L597.688 519.911C600.184 519.846 602.367 519.515 604.207 521.263C605.144 522.904 604.768 524.112 604.51 525.969C602.069 526.314 599.792 526.81 597.676 525.739C596.509 524.197 596.885 521.941 596.964 519.933Z" fill="#F3F2F2"/>
<path d="M263.317 515.886C264.826 515.81 265.547 515.844 267.053 515.985C270.499 518.11 274.664 527.222 277.341 531.471C277.285 526.792 275.956 519.152 278.796 516.08C280.505 515.96 279.957 515.754 281.212 516.575C282.03 521.547 281.575 532.448 281.53 538.092C279.862 538.198 279.426 538.174 277.773 537.924C274.541 535.738 269.989 526.353 267.637 522.311C267.516 526.85 268.588 533.458 266.901 537.174C265.435 538.345 266.148 538.088 264.194 538.082C262.428 535.945 263.257 519.619 263.317 515.886Z" fill="#030301"/>
<path d="M847.595 515.825L850.849 515.889C854.097 517.674 859.124 528.027 861.228 531.741C861.211 528.096 860.157 518.726 862.479 516.387C864.23 515.926 863.551 515.857 865.077 516.522C865.902 519.555 865.464 534.082 865.425 538.143C864.017 538.198 863.175 538.122 861.772 538.002C858.541 535.994 853.733 526.168 851.539 522.321C851.629 526.789 852.19 534.488 850.047 538.188L849.183 538.341C846.45 535.249 846.406 519.746 847.595 515.825Z" fill="#030301"/>
<path d="M308.707 515.835C309.789 515.844 310.872 515.912 311.954 515.965C315.198 517.712 319.903 527.515 322.187 531.426C322.272 527.592 321.042 518.479 323.742 516.087C325.57 515.862 325.09 515.633 326.203 516.485C326.978 521.282 326.582 532.803 326.518 538.195C325.131 538.22 324.265 538.152 322.882 538.014C319.709 536.125 314.649 525.826 312.546 522.097C312.603 525.561 313.412 536.373 310.41 538.132C307.332 535.318 308.147 520.189 308.707 515.835Z" fill="#030301"/>
<path d="M404.288 515.756C405.414 515.779 406.486 515.873 407.608 515.961C410.743 517.873 415.686 528.06 417.769 531.794C417.777 528.993 417.349 519.387 417.941 517.34C419.323 515.806 418.618 516.227 420.594 515.726C421.537 516.457 421.967 516.682 421.929 518.337C421.858 521.434 422.791 536.356 421.155 538.474L418.491 538.192C415.467 536.56 409.983 525.594 407.953 522.047C408.047 526.548 408.609 533.96 406.609 537.78L405.727 538.021C403.061 535.14 403.154 519.515 404.288 515.756Z" fill="#030301"/>
<path d="M754.407 515.755C755.524 515.779 756.573 515.877 757.684 515.969C760.764 517.86 765.734 528.012 767.861 531.763C767.833 526.732 767.76 521.701 767.984 516.676C769.05 515.553 768.405 515.854 770.004 515.807C773.224 518.693 772.831 536.49 771.255 538.464L768.573 538.197C765.532 536.567 760.012 525.498 758.009 521.988C758.116 526.354 758.71 534.36 756.601 537.921L755.804 538.045C753.251 535.157 753.122 519.249 754.407 515.755Z" fill="#030301"/>
<path d="M899.137 515.866C901.157 515.822 902.762 515.565 904.518 516.46C905.948 520.648 912.984 535.185 910.313 538.123C908.254 538.172 908.641 538.471 907.16 537.555C906.7 536.08 906.487 535.312 905.427 534.176C892.691 533.761 898.453 537.318 892.786 539.173L891.855 538.354C891.44 535.773 897.796 519.595 899.137 515.866Z" fill="#030301"/>
<path d="M901.387 521.684C902.807 523.088 904.024 527.209 904.074 529.307L903.171 530.187C901.679 530.043 900.815 530.118 899.62 529.236C899.014 526.852 900.445 524.29 901.387 521.684Z" fill="#F3F2F2"/>
<path d="M831.83 515.882C833.485 515.839 834.989 515.62 836.447 516.289C837.945 519.484 843.169 534.092 843.892 537.443C842.63 538.539 843.14 538.201 841.396 538.579C839.623 537.958 838.91 536.402 837.956 534.713L837.788 534.413L836.083 534.17C834.242 534.151 830.545 533.866 829.143 534.67C828.756 536.179 828.711 537.186 827.51 538.078C825.288 538.504 825.973 538.677 824.273 537.962L823.914 536.555C824.868 533.357 830.326 517.287 831.83 515.882Z" fill="#030301"/>
<path d="M833.715 521.537C834.854 524.079 836.296 526.675 836.015 529.433L834.467 530.576C833.132 530.191 832.733 530.174 831.673 529.326C830.927 527.088 832.733 523.888 833.715 521.537Z" fill="#F3F2F2"/>
<path d="M248.255 515.777C249.859 515.743 250.329 515.645 251.834 516.106C254.975 519.319 258.208 532.178 260.204 537.502C259.43 538.298 258.496 538.261 257.345 538.431C255.101 537.329 255.449 536.804 253.794 534.361L252.045 534.161C240.73 533.84 247.259 537.707 241.496 538.788C240.158 538.04 240.572 538.487 239.808 537.169C241.016 533.587 246.089 517.409 248.255 515.777Z" fill="#030301"/>
<path d="M249.822 521.644C251.233 524.022 253.339 528.204 251.141 530.341C249.61 530.108 248.812 530.174 247.782 529.065C247.172 526.957 248.904 523.828 249.822 521.644Z" fill="#F3F2F2"/>
<path d="M210.047 515.799C212.437 515.905 213.128 515.553 214.922 516.635C215.987 518.816 222.427 536.221 222.177 537.7C220.921 538.524 220.881 538.547 219.416 538.533C217.738 537.721 217.143 536.13 216.28 534.474L215.017 534.17C213.11 534.145 210.282 534.024 208.415 534.288C207.154 534.467 207.468 536.006 206.306 537.942C204.379 538.398 203.019 538.86 202.053 536.972C203.362 533.609 208.385 518.009 210.047 515.799Z" fill="#030301"/>
<path d="M211.919 521.735C213.252 523.172 215.498 528.371 213.674 530.122C212.161 530.006 211.313 530.097 210.072 529.244C209.456 526.874 210.933 524.359 211.919 521.735Z" fill="#F3F2F2"/>
<path d="M292.675 515.836C295.293 515.702 296.941 515.546 298.295 518.152C299.528 520.524 305.097 536.154 304.968 537.805C303.183 538.729 303.765 538.766 302.136 538.473C300.343 537.246 299.956 536.286 298.887 534.398L297.489 534.167C295.381 534.117 292.268 533.837 290.425 534.551C289.965 535.641 289.534 536.745 289.133 537.86C287.416 538.44 285.852 538.765 284.756 537.14C285.564 534.688 291.549 517.39 292.675 515.836Z" fill="#030301"/>
<path d="M294.646 521.612C296.162 523.581 297.185 526.793 297.208 529.304L296.026 530.402C294.609 530.127 294.21 530.128 292.976 529.429C292.108 526.827 293.576 524.36 294.646 521.612Z" fill="#F3F2F2"/>
<path d="M388.296 515.875C388.636 515.853 388.976 515.836 389.317 515.821C390.257 515.784 391.547 515.746 392.34 516.314C394.84 518.104 400.34 535.891 400.418 537.771C395.615 540.508 396.43 535.224 393.414 534.178C391.2 534.118 388.035 533.865 386.01 534.466C385.362 535.727 385.123 536.419 384.671 537.766C383.116 538.563 381.826 538.639 380.583 537.412C380.395 535.773 386.842 517.738 388.296 515.875Z" fill="#030301"/>
<path d="M390.22 521.704C391.594 523.122 392.601 527.2 392.63 529.304L391.403 530.428C389.625 530.004 389.438 530.242 388.189 529.088C387.603 526.994 389.316 523.871 390.22 521.704Z" fill="#F3F2F2"/>
<path d="M538.291 515.813C540.089 515.729 541.091 515.481 542.614 516.385C545.096 519.089 550.703 535.752 550.631 537.776C548.882 538.762 549.496 538.758 547.871 538.481C546.07 537.273 545.667 536.29 544.588 534.412L543.222 534.169C531.63 534.029 538.363 535.476 533.5 538.369C531.694 538.177 531.717 538.447 530.318 537.459C531.772 533.871 536.727 518.311 538.291 515.813Z" fill="#030301"/>
<path d="M540.395 521.627C541.786 523.272 542.87 527.078 542.909 529.307L541.771 530.379C539.905 529.938 539.402 530.177 538.409 528.914C537.977 526.719 539.506 523.817 540.395 521.627Z" fill="#F3F2F2"/>
<path d="M783.149 515.883C785.051 515.857 786.723 515.56 788.165 516.617C789.545 519.421 795.368 535.221 795.458 537.688L793.949 538.577C789.41 538.253 791.789 535.391 788.383 534.175C785.881 534.106 783.452 533.908 781.028 534.534C780.164 535.732 780.142 535.891 779.659 537.327L779.53 537.715C777.555 538.59 778.083 538.323 775.704 538.023C775.092 536.05 781.73 518.656 783.149 515.883Z" fill="#030301"/>
<path d="M785.185 521.714C786.476 522.743 787.62 527.201 787.895 528.986L787.087 530.062C784.995 529.862 784.697 530.187 783.267 529.044C782.644 527.075 784.35 523.79 785.185 521.714Z" fill="#F3F2F2"/>
<path d="M561.434 515.185C564.693 515.254 572.155 517.775 570.668 521.923C566.528 522.855 562.578 517.913 558.113 521.048L558.132 521.887C561.383 525.459 570.259 525.505 571.773 530.826C573.187 535.799 567.644 537.808 564.227 538.766C560.544 538.801 555.766 537.831 553.698 534.461C553.52 532.397 553.316 533.114 554.225 531.552C557.543 531.231 560.486 535.28 565.198 534.437C566.988 533.154 566.522 533.825 567.218 531.965C565.776 528.122 559.932 529.614 556.881 527.626C549.376 522.735 555.055 516.752 561.434 515.185Z" fill="#030301"/>
<path d="M707.303 515.171C711.331 515.513 715.623 516.849 716.324 521.387L715.774 522.044C711.168 522.558 707.381 517.194 703.74 521.416L703.841 522.542C707.061 525.828 721.031 525.59 716.7 534.712C715.488 537.254 711.982 538.151 709.457 538.891C704.986 538.657 700.391 537.909 699.184 532.887L699.768 532.077C704.357 531.508 710.035 537.073 712.711 532.477L712.419 531.466C709.35 528.612 700.497 528.851 699.342 523.582C698.107 517.941 702.927 516.185 707.303 515.171Z" fill="#030301"/>
<path d="M433.534 515.173C436.8 515.329 444.155 517.779 442.169 522.029C437.731 522.629 433.737 517.338 429.404 521.423C433.361 525.691 447.052 526.23 442.933 534.646C441.586 537.399 438.42 538.115 435.661 538.903C435.346 538.89 435.032 538.871 434.719 538.845C431.241 538.576 427.816 537.337 425.526 534.613C425.111 532.792 425.031 533.53 425.827 531.838C430.396 531.687 436.047 536.939 439.017 532.5L438.796 531.497C435.785 528.608 427.024 528.886 425.688 523.839C424.159 518.062 429.296 516.179 433.534 515.173Z" fill="#030301"/>
<path d="M679.526 515.929C683.262 515.878 694.483 514.822 696.587 517.567C695.661 522.503 688.368 517.515 684.149 520.539C682.707 528.568 690.494 522.685 694.679 525.064C695.139 527.015 695.167 526.2 694.511 528.153C693.114 528.944 686.668 528.615 684.62 528.597C683.638 529.938 683.947 530.693 683.851 532.62C686.494 536.352 692.559 532.68 696.211 534.908C696.733 536.461 696.615 535.893 696.02 537.75C694.758 538.44 681.815 538.148 679.397 538.142C679.374 530.805 679.245 523.243 679.526 515.929Z" fill="#030301"/>
<path d="M661.152 515.924C664.726 515.948 675.621 514.335 676.087 518.369C673.422 522.33 667.895 517.955 664.67 520.727C664.075 530.868 672.995 519.737 675.189 528.744C673.079 529.829 667.273 529.448 664.658 529.429C664.726 531.76 665.214 536.147 663.901 537.959C661.864 538.102 662.005 538.426 660.467 537.475C660.019 534.554 659.676 517.601 661.152 515.924Z" fill="#030301"/>
<path d="M222.181 515.871C223.938 515.768 224.411 515.673 226.068 516.214C228.64 518.479 229.9 522.34 231.321 525.589C232.94 522.087 235.367 516.036 239.527 515.036C240.76 518.196 237.63 522.554 236.063 525.325C232.334 531.915 234.821 533.481 232.174 537.709C230.637 538.381 231.32 538.274 229.463 537.899C228.285 535.456 229.454 531.498 228.764 529.377C227.782 526.361 221.545 518.827 222.181 515.871Z" fill="#030301"/>
<path d="M338.737 515.926C343.475 515.978 351.871 514.783 355.473 516.879C356.388 518.338 356.263 517.676 356.023 519.286C354.263 520.312 351.481 520 349.351 519.96L349.375 533.752C349.341 536.401 349.749 535.948 348.404 537.755C346.479 538.633 347.019 538.753 345.432 538.297C343.871 536.669 344.487 523.17 344.518 519.974C343.848 519.993 343.178 520.003 342.508 520.003C340.169 520 338.916 519.95 337.395 518.405C337.423 516.873 337.442 517.252 338.737 515.926Z" fill="#030301"/>
<path d="M513.46 515.928C517.044 515.863 528.477 515.381 531.113 516.432C531.489 517.826 531.517 518.001 531.039 519.358C529.407 520.344 526.546 519.99 524.501 519.935L524.506 530.732C524.615 533.266 525.358 536.623 523.202 538.12C521.337 538.028 521.17 538.349 519.994 537.303C519.355 534.022 519.738 523.739 519.758 519.977C517.819 520.043 515.866 520.26 514.036 519.676C512.935 518.024 513.299 518.329 513.46 515.928Z" fill="#030301"/>
<path d="M799.413 515.66C800.934 515.694 801.388 515.569 802.622 516.334C804.266 519.443 803.447 530.028 803.408 534.186C806.886 534.247 812.272 532.945 814.595 535.513L814.455 538.128L798.864 538.131C798.819 534.355 798.342 518.179 799.413 515.66Z" fill="#030301"/>
<path d="M185.056 515.421C186.03 515.591 186.705 515.781 187.643 516.043C189.407 518.681 188.58 530.397 188.53 534.188C191.823 534.101 197.422 533.426 199.817 535.344C199.874 536.82 199.85 536.861 199.015 538.131L184.06 538.132C184.052 533.647 183.217 518.263 185.056 515.421Z" fill="#030301"/>
<path d="M721.424 515.459C722.939 515.702 723.651 515.672 724.857 516.629C725.211 520.474 725.643 535.975 723.96 538.74C722.439 538.424 721.94 538.431 720.683 537.585C720.246 534.087 719.853 518.035 721.424 515.459Z" fill="#030301"/>
<path d="M575.566 515.676C577.496 515.873 577.922 515.607 579.347 516.649C579.813 520.865 579.718 534.206 579.297 538.514C577.361 538.219 576.25 538.439 575.168 537.27C574.932 533.886 574.517 517.887 575.566 515.676Z" fill="#030301"/>
</g>
<defs>
<clipPath id="clip0_15044_8996">
<rect width="1149" height="629" fill="white"/>
</clipPath>
</defs>
</svg>
